<?xml version="1.0" encoding="UTF-8"?>
<!DOCTYPE svg PUBLIC "-//W3C//DTD SVG 1.1//EN" "http://www.w3.org/Graphics/SVG/1.1/DTD/svg11.dtd">
<svg xmlns="http://www.w3.org/2000/svg" version="1.1" width="512px" height="512px" style="shape-rendering:geometricPrecision; text-rendering:geometricPrecision; image-rendering:optimizeQuality; fill-rule:evenodd; clip-rule:evenodd" xmlns:xlink="http://www.w3.org/1999/xlink">
<g><path style="opacity:0.971" fill="#fcba3f" d="M 252.5,-0.5 C 254.5,-0.5 256.5,-0.5 258.5,-0.5C 279.301,9.06258 300.301,18.3959 321.5,27.5C 241.255,63.1376 160.588,97.8042 79.5,131.5C 57.141,122.82 35.141,113.32 13.5,103C 93.3913,68.7676 173.058,34.2676 252.5,-0.5 Z"/></g>
<g><path style="opacity:0.961" fill="#fcba3f" d="M 340.5,36.5 C 356.793,42.1419 372.793,48.6419 388.5,56C 307.871,91.2289 227.038,126.062 146,160.5C 130.627,154.228 115.46,147.562 100.5,140.5C 180.581,105.787 260.581,71.1205 340.5,36.5 Z"/></g>
<g><path style="opacity:0.976" fill="#fcba3f" d="M 408.5,64.5 C 438.141,77.3185 467.807,90.1519 497.5,103C 417.068,138.313 336.401,173.146 255.5,207.5C 225.681,194.952 196.015,182.118 166.5,169C 247.373,134.391 328.039,99.5574 408.5,64.5 Z"/></g>
<g><path style="opacity:0.987" fill="#fcba3f" d="M 247.5,511.5 C 246.5,511.5 245.5,511.5 244.5,511.5C 163.706,476.276 82.7061,441.276 1.5,406.5C 0.166667,309.5 0.166667,212.5 1.5,115.5C 24.74,125.371 47.9067,135.371 71,145.5C 71.0472,165.884 71.7139,186.218 73,206.5C 74.1667,207.667 75.3333,208.833 76.5,210C 79.877,210.369 83.2103,210.369 86.5,210C 90.3059,214.811 94.9726,218.478 100.5,221C 108.106,222.661 115.773,223.994 123.5,225C 130.875,227.367 136.875,231.701 141.5,238C 147.868,241.188 152.035,239.354 154,232.5C 154.5,215.503 154.667,198.503 154.5,181.5C 185.366,193.93 216.032,206.93 246.5,220.5C 247.5,317.498 247.833,414.498 247.5,511.5 Z M 28.5,326.5 C 31.2706,326.421 33.9373,326.921 36.5,328C 56.7515,336.862 77.0848,345.528 97.5,354C 103.315,359.592 102.648,364.258 95.5,368C 94.1667,368.667 92.8333,368.667 91.5,368C 70.0852,359.195 48.7518,350.195 27.5,341C 22.0028,335.683 22.3361,330.85 28.5,326.5 Z M 27.5,368.5 C 30.941,368.301 34.2744,368.801 37.5,370C 65.5,382 93.5,394 121.5,406C 127.092,411.167 126.759,415.833 120.5,420C 118.5,420.667 116.5,420.667 114.5,420C 84.4447,407.22 54.6114,394.053 25,380.5C 22.6957,375.855 23.529,371.855 27.5,368.5 Z"/></g>
<g><path style="opacity:0.991" fill="#fcba3f" d="M 266.5,511.5 C 265.5,511.5 264.5,511.5 263.5,511.5C 263.167,414.498 263.5,317.498 264.5,220.5C 346.249,185.695 427.915,150.695 509.5,115.5C 510.833,212.5 510.833,309.5 509.5,406.5C 428.294,441.276 347.294,476.276 266.5,511.5 Z"/></g>
<g><path style="opacity:0.943" fill="#fcba3f" d="M 87.5,152.5 C 104.261,159.379 120.928,166.546 137.5,174C 138.822,187.437 138.822,200.937 137.5,214.5C 127.899,209.016 117.565,206.516 106.5,207C 102.868,204.37 99.535,201.37 96.5,198C 93.6907,196.259 90.6907,195.092 87.5,194.5C 87.5,180.5 87.5,166.5 87.5,152.5 Z"/></g>
</svg>
