<?xml version="1.0" encoding="UTF-8"?>
<!DOCTYPE svg PUBLIC "-//W3C//DTD SVG 1.1//EN" "http://www.w3.org/Graphics/SVG/1.1/DTD/svg11.dtd">
<svg xmlns="http://www.w3.org/2000/svg" version="1.1" width="512px" height="512px" style="shape-rendering:geometricPrecision; text-rendering:geometricPrecision; image-rendering:optimizeQuality; fill-rule:evenodd; clip-rule:evenodd" xmlns:xlink="http://www.w3.org/1999/xlink">
<g><path style="opacity:0.88" fill="#fcba3f" d="M 349.5,66.5 C 381.953,65.4662 403.786,80.1329 415,110.5C 419.142,129.169 416.476,146.836 407,163.5C 402.36,170.307 397.527,176.973 392.5,183.5C 403.677,189.589 415.01,195.422 426.5,201C 430.491,203.989 433.324,207.822 435,212.5C 447,284.5 459,356.5 471,428.5C 472.833,438.667 468.667,442.833 458.5,441C 429.478,429.104 400.311,417.604 371,406.5C 332.471,419.065 293.971,431.732 255.5,444.5C 217.029,431.732 178.529,419.065 140,406.5C 111.688,417.271 83.5215,428.438 55.5,440C 44.0448,444.212 38.8781,440.379 40,428.5C 52,356.5 64,284.5 76,212.5C 77.676,207.822 80.5094,203.989 84.5,201C 109.127,188.519 133.793,176.353 158.5,164.5C 190.968,176.768 223.302,189.435 255.5,202.5C 276.322,194.284 296.988,185.784 317.5,177C 295.692,152.322 291.858,125.155 306,95.5C 316.498,79.6785 330.998,70.0118 349.5,66.5 Z M 347.5,76.5 C 373.751,74.2824 392.584,84.949 404,108.5C 409.751,125.556 408.084,141.89 399,157.5C 388.667,171.5 378.333,185.5 368,199.5C 364.333,207.5 360.667,215.5 357,223.5C 353.135,213.436 348.468,203.77 343,194.5C 334.333,183.167 325.667,171.833 317,160.5C 302.095,136.956 303.095,114.29 320,92.5C 327.649,84.4296 336.816,79.0963 347.5,76.5 Z M 355.5,100.5 C 372.099,101.929 379.932,110.929 379,127.5C 375.063,141.422 365.896,147.255 351.5,145C 336.679,139.234 331.846,128.734 337,113.5C 341.143,106.177 347.309,101.844 355.5,100.5 Z M 163.5,176.5 C 192.222,187.631 220.889,198.964 249.5,210.5C 250.833,284.5 250.833,358.5 249.5,432.5C 216.279,421.093 182.945,410.093 149.5,399.5C 151.914,390.773 155.414,382.44 160,374.5C 167.605,362.962 175.938,351.962 185,341.5C 202.958,315.767 203.958,289.433 188,262.5C 179.744,252.451 169.577,244.951 157.5,240C 159.635,218.885 161.635,197.718 163.5,176.5 Z M 152.5,177.5 C 153.139,178.097 153.472,178.93 153.5,180C 151.53,199.475 149.863,218.975 148.5,238.5C 115.603,236.359 93.4361,250.692 82,281.5C 76.6879,305.276 81.6879,326.61 97,345.5C 111.691,360.868 122.857,378.535 130.5,398.5C 103.885,409.984 77.0516,420.984 50,431.5C 61.1166,359.799 72.7833,288.132 85,216.5C 86.0608,213.438 87.8941,210.938 90.5,209C 111.384,198.726 132.05,188.226 152.5,177.5 Z M 322.5,185.5 C 324.371,185.859 325.871,186.859 327,188.5C 329.333,191.833 331.667,195.167 334,198.5C 340.346,210.904 346.679,223.237 353,235.5C 357.667,289.507 362.001,343.507 366,397.5C 331.283,409.461 296.45,421.128 261.5,432.5C 260.501,421.186 260.168,409.853 260.5,398.5C 266.559,397.319 272.559,395.819 278.5,394C 281.593,389.8 280.76,386.633 276,384.5C 270.899,386.146 265.732,387.479 260.5,388.5C 260.167,329.163 260.5,269.83 261.5,210.5C 282.036,202.39 302.37,194.057 322.5,185.5 Z M 384.5,191.5 C 397.778,196.889 410.611,203.222 423,210.5C 424.439,212.275 425.439,214.275 426,216.5C 437.779,287.343 449.613,358.176 461.5,429C 461.167,429.833 460.833,430.667 460.5,431.5C 432.5,420.167 404.5,408.833 376.5,397.5C 371.06,342.558 366.56,287.558 363,232.5C 367.045,225.04 370.712,217.373 374,209.5C 377.356,203.336 380.856,197.336 384.5,191.5 Z M 134.5,247.5 C 167.781,248.288 186.115,265.121 189.5,298C 189.385,310.013 186.219,321.18 180,331.5C 171.333,342.833 162.667,354.167 154,365.5C 148.896,374.708 144.063,384.041 139.5,393.5C 135.096,384.456 130.596,375.456 126,366.5C 116.283,354.45 106.949,342.117 98,329.5C 82.368,300.21 87.5346,275.377 113.5,255C 120.162,251.171 127.162,248.671 134.5,247.5 Z M 135.5,272.5 C 151.339,271.842 160.339,279.342 162.5,295C 158.823,313.668 147.823,320.335 129.5,315C 117.695,307.244 114.528,296.744 120,283.5C 123.962,278.023 129.129,274.356 135.5,272.5 Z"/></g>
<g><path style="opacity:0.876" fill="#fcba3f" d="M 351.5,91.5 C 376.305,90.8062 388.805,102.806 389,127.5C 384.454,147.366 371.954,156.533 351.5,155C 331.557,149.292 323.057,136.125 326,115.5C 329.536,102.129 338.036,94.1286 351.5,91.5 Z M 355.5,100.5 C 347.309,101.844 341.143,106.177 337,113.5C 331.846,128.734 336.679,139.234 351.5,145C 365.896,147.255 375.063,141.422 379,127.5C 379.932,110.929 372.099,101.929 355.5,100.5 Z"/></g>
<g><path style="opacity:0.818" fill="#fcba3f" d="M 339.5,234.5 C 344.283,234.449 346.45,236.782 346,241.5C 341.584,246.154 336.418,247.987 330.5,247C 328.722,244.778 328.555,242.612 330,240.5C 333.147,238.35 336.313,236.35 339.5,234.5 Z"/></g>
<g><path style="opacity:0.861" fill="#fcba3f" d="M 304.5,254.5 C 308.176,254.319 310.176,255.986 310.5,259.5C 309.365,262.45 308.198,265.45 307,268.5C 306.667,272.167 306.333,275.833 306,279.5C 303.333,282.167 300.667,282.167 298,279.5C 296.336,273.446 296.67,267.446 299,261.5C 299.967,258.379 301.8,256.046 304.5,254.5 Z"/></g>
<g><path style="opacity:0.88" fill="#fcba3f" d="M 136.5,262.5 C 160.795,263.625 172.295,276.292 171,300.5C 165.719,320.905 152.552,329.405 131.5,326C 112.114,318.733 104.614,304.9 109,284.5C 114.241,272.076 123.408,264.743 136.5,262.5 Z M 135.5,272.5 C 129.129,274.356 123.962,278.023 120,283.5C 114.528,296.744 117.695,307.244 129.5,315C 147.823,320.335 158.823,313.668 162.5,295C 160.339,279.342 151.339,271.842 135.5,272.5 Z"/></g>
<g><path style="opacity:0.856" fill="#fcba3f" d="M 301.5,304.5 C 303.527,304.338 305.527,304.505 307.5,305C 308.126,305.75 308.626,306.584 309,307.5C 310.152,315.142 310.486,322.809 310,330.5C 304.475,333.569 301.475,331.902 301,325.5C 300.703,320.309 300.203,315.143 299.5,310C 299.758,307.991 300.425,306.157 301.5,304.5 Z"/></g>
<g><path style="opacity:0.847" fill="#fcba3f" d="M 307.5,354.5 C 309.679,354.84 311.512,355.84 313,357.5C 314.263,365.168 313.263,372.501 310,379.5C 307.445,381.65 304.612,381.983 301.5,380.5C 300.978,379.393 300.645,378.226 300.5,377C 303.734,370.835 304.9,364.335 304,357.5C 305.145,356.364 306.312,355.364 307.5,354.5 Z"/></g>
<g><path style="opacity:0.834" fill="#fcba3f" d="M 165.5,386.5 C 169.819,387.035 174.152,387.535 178.5,388C 181.167,390.667 181.167,393.333 178.5,396C 173.833,396.667 169.167,396.667 164.5,396C 161.636,392.376 161.969,389.209 165.5,386.5 Z"/></g>
<g><path style="opacity:0.867" fill="#fcba3f" d="M 205.5,388.5 C 213.189,388.613 220.855,389.113 228.5,390C 230.457,392.121 230.957,394.621 230,397.5C 222.246,398.647 214.413,398.814 206.5,398C 201.554,395.287 201.221,392.121 205.5,388.5 Z"/></g>
</svg>
