<?xml version="1.0" encoding="UTF-8"?>
<!DOCTYPE svg PUBLIC "-//W3C//DTD SVG 1.1//EN" "http://www.w3.org/Graphics/SVG/1.1/DTD/svg11.dtd">
<svg xmlns="http://www.w3.org/2000/svg" version="1.1" width="512px" height="512px" style="shape-rendering:geometricPrecision; text-rendering:geometricPrecision; image-rendering:optimizeQuality; fill-rule:evenodd; clip-rule:evenodd" xmlns:xlink="http://www.w3.org/1999/xlink">
<g><path style="opacity:0.966" fill="#fcba3f" d="M 253.5,19.5 C 259.126,20.8084 264.459,22.9751 269.5,26C 341.677,63.5886 414.01,100.922 486.5,138C 488,138.833 489.167,140 490,141.5C 490.964,155.594 490.631,169.594 489,183.5C 487.612,184.554 486.112,184.72 484.5,184C 408.443,144.305 332.11,105.138 255.5,66.5C 178.89,105.138 102.557,144.305 26.5,184C 23.7825,185.033 21.9492,184.2 21,181.5C 20.3333,168.167 20.3333,154.833 21,141.5C 21.3076,140.692 21.8076,140.025 22.5,139.5C 99.7184,99.7257 176.718,59.7257 253.5,19.5 Z"/></g>
<g><path style="opacity:0.977" fill="#fcba3f" d="M 254.5,76.5 C 325.78,113.141 397.113,149.807 468.5,186.5C 469.5,284.164 469.833,381.831 469.5,479.5C 477.174,479.334 484.841,479.5 492.5,480C 496.747,484.163 496.414,487.829 491.5,491C 334.167,491.667 176.833,491.667 19.5,491C 14.5859,487.829 14.2525,484.163 18.5,480C 26.1594,479.5 33.8261,479.334 41.5,479.5C 41.1667,381.831 41.5,284.164 42.5,186.5C 113.542,150.314 184.209,113.647 254.5,76.5 Z M 96.5,191.5 C 202.5,191.5 308.5,191.5 414.5,191.5C 414.5,287.5 414.5,383.5 414.5,479.5C 406.833,479.5 399.167,479.5 391.5,479.5C 391.968,457.101 391.468,434.767 390,412.5C 389.097,411.299 387.931,410.465 386.5,410C 376.839,409.5 367.172,409.334 357.5,409.5C 357.666,415.842 357.5,422.175 357,428.5C 352.594,431.752 349.594,430.752 348,425.5C 347.501,420.177 347.334,414.844 347.5,409.5C 338.161,409.334 328.827,409.5 319.5,410C 317.333,410.833 315.833,412.333 315,414.5C 314.5,436.164 314.333,457.831 314.5,479.5C 311.167,479.5 307.833,479.5 304.5,479.5C 304.667,457.497 304.5,435.497 304,413.5C 302.833,412.333 301.667,411.167 300.5,410C 290.839,409.5 281.172,409.334 271.5,409.5C 271.666,415.509 271.499,421.509 271,427.5C 268,431.5 265,431.5 262,427.5C 261.501,421.509 261.334,415.509 261.5,409.5C 251.828,409.334 242.161,409.5 232.5,410C 231.333,411.167 230.167,412.333 229,413.5C 228.5,435.497 228.333,457.497 228.5,479.5C 225.167,479.5 221.833,479.5 218.5,479.5C 218.968,457.101 218.468,434.767 217,412.5C 216.097,411.299 214.931,410.465 213.5,410C 203.839,409.5 194.172,409.334 184.5,409.5C 184.666,415.842 184.5,422.175 184,428.5C 179.594,431.752 176.594,430.752 175,425.5C 174.501,420.177 174.334,414.844 174.5,409.5C 165.161,409.334 155.827,409.5 146.5,410C 144.333,410.833 142.833,412.333 142,414.5C 141.5,436.164 141.333,457.831 141.5,479.5C 126.5,479.5 111.5,479.5 96.5,479.5C 96.5,383.5 96.5,287.5 96.5,191.5 Z"/></g>
<g><path style="opacity:0.929" fill="#fcba3f" d="M 106.5,201.5 C 205.833,201.5 305.167,201.5 404.5,201.5C 404.5,210.167 404.5,218.833 404.5,227.5C 305.167,227.5 205.833,227.5 106.5,227.5C 106.5,218.833 106.5,210.167 106.5,201.5 Z"/></g>
<g><path style="opacity:0.969" fill="#fcba3f" d="M 106.5,237.5 C 205.833,237.5 305.167,237.5 404.5,237.5C 404.5,245.833 404.5,254.167 404.5,262.5C 305.167,262.5 205.833,262.5 106.5,262.5C 106.5,254.167 106.5,245.833 106.5,237.5 Z"/></g>
<g><path style="opacity:0.969" fill="#fcba3f" d="M 106.5,272.5 C 205.833,272.5 305.167,272.5 404.5,272.5C 404.5,280.833 404.5,289.167 404.5,297.5C 305.167,297.5 205.833,297.5 106.5,297.5C 106.5,289.167 106.5,280.833 106.5,272.5 Z"/></g>
<g><path style="opacity:0.96" fill="#fcba3f" d="M 148.5,322.5 C 157.167,322.5 165.833,322.5 174.5,322.5C 174.123,329.257 174.623,335.924 176,342.5C 178.667,345.167 181.333,345.167 184,342.5C 184.5,335.842 184.666,329.175 184.5,322.5C 194.566,322.105 204.566,322.605 214.5,324C 216.049,325.214 217.215,326.714 218,328.5C 218.667,350.167 218.667,371.833 218,393.5C 217.602,396.232 216.102,398.065 213.5,399C 191.167,399.667 168.833,399.667 146.5,399C 145.069,398.535 143.903,397.701 143,396.5C 141.365,373.897 141.032,351.23 142,328.5C 143.436,325.558 145.603,323.558 148.5,322.5 Z"/></g>
<g><path style="opacity:0.972" fill="#fcba3f" d="M 235.5,322.5 C 244.167,322.5 252.833,322.5 261.5,322.5C 261.334,328.842 261.5,335.175 262,341.5C 265,345.5 268,345.5 271,341.5C 271.5,335.175 271.666,328.842 271.5,322.5C 281.566,322.105 291.566,322.605 301.5,324C 302.701,324.903 303.535,326.069 304,327.5C 304.667,350.167 304.667,372.833 304,395.5C 302.786,397.049 301.286,398.215 299.5,399C 277.5,399.667 255.5,399.667 233.5,399C 231.714,398.215 230.214,397.049 229,395.5C 228.333,372.833 228.333,350.167 229,327.5C 230.272,324.508 232.438,322.841 235.5,322.5 Z"/></g>
</svg>
